<svg height="87" viewBox="0 0 100 87" width="100" xmlns="http://www.w3.org/2000/svg"><path d="m90.922 28.991-10.328 3.474v12.412c0 7.237-5.912 13.123-13.177 13.123h-34.836c-7.265 0-13.177-5.886-13.177-13.123v-12.412l-10.328-3.474a4.507 4.507 0 0 1 -2.838-5.71c.797-2.355 3.365-3.621 5.734-2.826l3.924 1.32a4.52 4.52 0 0 1 -.079-.778c0-2.469 2.005-4.477 4.48-4.5 1.603-5.004 10.847-8.194 21.38-9.346.92-4.085 4.585-7.151 8.96-7.151 4.376 0 8.042 3.066 8.962 7.151 10.702 1.171 20.078 4.442 21.458 9.584 1.807.59 3.126 2.267 3.126 4.262 0 .266-.035.524-.08.777l3.923-1.32c2.361-.794 4.936.472 5.733 2.827a4.447 4.447 0 0 1 -.232 3.44 4.486 4.486 0 0 1 -2.605 2.27zm-70.581-9.364c-.759 0-1.376.614-1.376 1.37 0 .754.617 1.368 1.376 1.368h59.318c.759 0 1.376-.614 1.376-1.368 0-.756-.617-1.37-1.376-1.37zm69.744 3.869a1.372 1.372 0 0 0 -1.05-.07l-8.44 2.838v2.892l9.318-3.135a1.37 1.37 0 0 0 .172-2.525zm-39.448-20.36a6.05 6.05 0 0 0 -5.577 3.714 83.846 83.846 0 0 1 11.158 0 6.054 6.054 0 0 0 -5.58-3.715zm0 6.663c-14.538 0-24.28 3.517-26.8 6.693h53.6c-2.518-3.176-12.261-6.693-26.8-6.693zm-41.416 14.487a1.367 1.367 0 0 0 .862 1.735l9.321 3.135v-2.892l-8.44-2.839a1.364 1.364 0 0 0 -1.05.07 1.36 1.36 0 0 0 -.693.79zm58.196 30.579c5.531 0 10.03-4.48 10.03-9.988v-19.377h-54.896v19.377c0 5.508 4.5 9.988 10.03 9.988h34.835zm-40.904-11.381v-14.596h3.148v14.596zm-22.229 26.932v12.684h6.802v3.683h-11.086v-16.367zm16.455-.29c.07-.168.213-.168.282 0l7.769 16.658h-4.426l-.612-1.397h-6.026l-.589 1.397h-4.19l7.792-16.659zm-1.649 11.987h3.249l-1.647-3.804zm26.58-11.89c4.612 0 8.592 3.442 8.592 8.377 0 4.933-3.98 8.4-8.592 8.4-4.614 0-8.594-3.467-8.594-8.4 0-4.935 3.98-8.377 8.594-8.377zm0 12.973c2.682 0 4.214-2.022 4.214-4.596 0-2.577-1.532-4.574-4.214-4.574-2.684 0-4.216 1.997-4.216 4.574 0 2.574 1.532 4.596 4.216 4.596zm15.818-12.78v12.684h6.802v3.683h-11.087v-16.367zm14.006 0v12.684h6.802v3.683h-11.086v-16.367zm16.455-.29c.07-.168.213-.168.282 0l7.769 16.657h-4.426l-.612-1.397h-6.026l-.589 1.397h-4.19l7.792-16.659zm-1.648 11.988h3.249l-1.647-3.804z" fill="#fff" fill-rule="evenodd"/></svg>