<svg xmlns="http://www.w3.org/2000/svg" width="108" height="85" viewBox="0 0 108 85">
    <g fill="#FFF" fill-rule="evenodd">
        <path d="M86.267 25.451c1.602.715 2.619 2.184 2.619 4.068 0 2.78-2.124 5.042-4.733 5.042-.1 0-.202-.003-.304-.01-.101-.006-.189-.017-.286-.025v3.182c1.924.568 3.34 2.335 3.34 4.446v.438a4.62 4.62 0 0 1-.703 2.435c.688.934 1.056 1.897 1.056 2.877 0 7.118-16.668 10.842-33.135 10.842s-33.136-3.724-33.136-10.842c0-.542.112-1.08.323-1.61a4.637 4.637 0 0 1-1.857-3.702v-.438c0-2.111 1.417-3.878 3.34-4.446v-3.184c-.097.008-.186.02-.286.026-.101.006-.201.01-.303.01-2.61 0-4.731-2.262-4.731-5.043 0-2.457 1.715-4.215 4.235-4.494-.266-1.117-.417-2.227-.417-3.318C21.289 9.737 35.979 0 54.039 0c18.056 0 32.747 9.737 32.747 21.705 0 1.232-.183 2.485-.52 3.746zm-61.802-3.746c0 1.075.165 2.15.499 3.26l5.482-.001 11.36.003 11.363-.003 11.361.003 11.367-.003 7.214.003c.329-1.108.498-2.2.498-3.262 0-10.211-13.264-18.52-29.57-18.52-16.307 0-29.574 8.309-29.574 18.52zm57.083 9.285c.839.17 1.561.319 2.513.382l.092.004c.857 0 1.556-.832 1.556-1.857 0-1.131-.953-1.367-1.753-1.367l-8.059-.003-11.367.003-11.36-.003-11.364.003-11.36-.003-8.046.003c-.802 0-1.753.236-1.753 1.365 0 1.026.697 1.857 1.555 1.857 1.047-.067 1.77-.213 2.61-.384 1.354-.277 2.892-.589 5.646-.589 2.968 0 4.474.239 5.932.471 1.399.223 2.719.432 5.436.432 2.714 0 4.034-.209 5.432-.432 1.456-.232 2.962-.471 5.927-.471 2.965 0 4.473.239 5.93.471 1.397.223 2.717.432 5.432.432 2.715 0 4.035-.209 5.432-.432 1.457-.232 2.962-.471 5.93-.471 2.75 0 4.284.314 5.639.59zm-55.58 6.508h54.419v-3.491c-1.12-.222-2.382-.42-4.479-.42-2.714 0-4.034.21-5.432.43-1.456.233-2.963.472-5.929.472-2.965 0-4.472-.239-5.928-.471-1.398-.222-2.718-.432-5.434-.432-2.714 0-4.034.21-5.432.432-1.456.232-2.962.471-5.927.471-2.967 0-4.475-.239-5.933-.471-1.4-.222-2.72-.432-5.435-.432-2.103 0-3.367.2-4.49.42v3.492zm57.759 5.094v-.438a1.47 1.47 0 0 0-1.466-1.471H24.095c-.81 0-1.467.66-1.467 1.471v.438a1.47 1.47 0 0 0 1.467 1.472h58.166a1.47 1.47 0 0 0 1.466-1.472zm.154 4.657H24.361c-.132.237-.2.457-.2.655 0 3.121 11.671 7.657 29.96 7.657 18.288 0 29.959-4.536 29.959-7.657 0-.198-.067-.418-.199-.655zM54.038 23.496c-2.75 0-4.992-2.246-4.992-5.006 0-.88.712-1.593 1.589-1.593a1.59 1.59 0 0 1 1.588 1.593 1.82 1.82 0 0 0 1.815 1.82c1 0 1.816-.817 1.816-1.82 0-.88.71-1.593 1.588-1.593.877 0 1.588.714 1.588 1.593 0 2.76-2.24 5.006-4.992 5.006zm-15.42-6.392a2.023 2.023 0 0 1-2.02-2.026c0-1.12.903-2.026 2.02-2.026 1.116 0 2.02.906 2.02 2.026a2.023 2.023 0 0 1-2.02 2.026zm30.84 0a2.023 2.023 0 0 1-2.02-2.026c0-1.12.904-2.026 2.02-2.026 1.117 0 2.02.906 2.02 2.026a2.023 2.023 0 0 1-2.02 2.026zM5.908 82.647a1.13 1.13 0 0 1 1.144 1.148c0 .644-.5 1.145-1.144 1.145H1.144A1.13 1.13 0 0 1 0 83.795V70.034c0-.644.5-1.147 1.144-1.147.643 0 1.143.503 1.143 1.147v12.613h3.621zm5.623-9.387a3.463 3.463 0 0 1 3.454 3.463v2.39a1.07 1.07 0 0 1-1.073 1.074H10.22v1.314c0 .55.308 1.004.808 1.217.502.193 1.05.097 1.431-.285.215-.215.451-.335.739-.335.308 0 .57.12.786.335.213.215.308.478.308.764 0 .287-.095.55-.308.765-1.026.98-2.454 1.288-3.764.74-1.334-.55-2.146-1.767-2.146-3.2v-4.779a3.463 3.463 0 0 1 3.456-3.463zm1.309 4.777v-1.314c0-.74-.57-1.313-1.309-1.313-.74 0-1.31.573-1.31 1.313v1.314h2.619zm8.65.884a3.317 3.317 0 0 1 1.405 2.508 3.256 3.256 0 0 1-1.072 2.676c-.74.669-1.715.98-2.741.812-1.023-.167-1.858-.74-2.357-1.625-.287-.501-.119-1.17.38-1.457.55-.286 1.19-.12 1.478.382.165.335.453.526.833.574.358.071.667-.024.954-.287.286-.239.405-.55.38-.932-.023-.406-.19-.692-.477-.883l-2.24-1.553a3.31 3.31 0 0 1-1.356-2.437 3.187 3.187 0 0 1 1.049-2.602c.738-.647 1.69-.957 2.668-.789a3.265 3.265 0 0 1 2.287 1.576c.286.501.143 1.17-.407 1.457-.498.288-1.165.12-1.453-.38a.965.965 0 0 0-.76-.526c-.312-.072-.62.022-.882.262-.262.214-.381.5-.359.86.025.335.19.598.453.811l2.217 1.553zm16.985-10.008c.548.117.904.571.904 1.12V83.89c0 .647-.5 1.147-1.142 1.147-.645 0-1.144-.5-1.144-1.147v-8.718c-.405.86-.812 1.72-1.12 2.364-.168.382-.359.74-.524 1.099-.19.406-.573.669-1.026.669-.498 0-.832-.214-1.046-.67-.167-.358-.36-.716-.525-1.098a85.741 85.741 0 0 1-1.095-2.364v8.718c0 .647-.5 1.147-1.144 1.147a1.13 1.13 0 0 1-1.143-1.147V70.034c0-.55.333-1.004.881-1.121.546-.12 1.072.143 1.285.643.311.694.645 1.386.978 2.08.547 1.218 1.261 2.65 1.81 3.82.549-1.17 1.238-2.602 1.786-3.82.311-.694.643-1.386.977-2.08.262-.5.738-.763 1.288-.643zM43 73.26a1.07 1.07 0 0 1 1.072 1.075v9.555A1.07 1.07 0 0 1 43 84.965a1.07 1.07 0 0 1-1.072-1.075v-9.555A1.07 1.07 0 0 1 43 73.26zm0-3.822c.738 0 1.31.572 1.31 1.313 0 .74-.572 1.313-1.31 1.313-.739 0-1.31-.573-1.31-1.313s.571-1.313 1.31-1.313zm8.053 9.483a3.317 3.317 0 0 1 1.405 2.508 3.256 3.256 0 0 1-1.072 2.676c-.74.669-1.715.98-2.741.812-1.023-.167-1.858-.74-2.357-1.625-.288-.501-.12-1.17.38-1.457.549-.286 1.19-.12 1.478.382.165.335.453.526.832.574.36.071.667-.024.955-.287.286-.239.405-.55.38-.932-.023-.406-.19-.692-.477-.883l-2.24-1.553a3.31 3.31 0 0 1-1.356-2.437 3.187 3.187 0 0 1 1.048-2.602c.739-.647 1.69-.957 2.669-.789a3.26 3.26 0 0 1 2.285 1.576c.288.501.145 1.17-.405 1.457-.499.288-1.166.12-1.453-.38a.965.965 0 0 0-.76-.526c-.312-.072-.62.022-.882.262-.262.214-.382.5-.36.86.026.335.191.598.453.811l2.218 1.553zM57.7 73.26a3.463 3.463 0 0 1 3.454 3.463v2.39a1.07 1.07 0 0 1-1.072 1.074H56.39v1.314c0 .55.308 1.004.808 1.217.502.193 1.05.097 1.431-.285.214-.215.451-.335.739-.335.308 0 .57.12.786.335.213.215.308.478.308.764 0 .287-.095.55-.308.765-1.026.98-2.454 1.288-3.764.74-1.334-.55-2.146-1.767-2.146-3.2v-4.779A3.463 3.463 0 0 1 57.7 73.26zm1.309 4.777v-1.314c0-.74-.57-1.313-1.309-1.313-.74 0-1.31.573-1.31 1.313v1.314h2.619zm9.46-4.228c.547.31.69.931.404 1.482-.31.5-.929.691-1.477.38a1.315 1.315 0 0 0-.643-.166h-1.31v8.385a1.07 1.07 0 0 1-1.072 1.075 1.07 1.07 0 0 1-1.072-1.075V74.43a1.07 1.07 0 0 1 1.072-1.076h2.382c.596 0 1.166.145 1.715.454zm5.551-.286c1.309.548 2.12 1.742 2.12 3.152v7.12c0 .596-.478 1.075-1.073 1.075h-2.381a3.464 3.464 0 0 1-3.456-3.464 3.464 3.464 0 0 1 3.456-3.465h1.309v-1.266c0-.5-.309-.978-.787-1.17-.476-.19-1.024-.096-1.38.286a1.01 1.01 0 0 1-.764.312.993.993 0 0 1-.738-.312 1.072 1.072 0 0 1-.334-.763c0-.288.121-.551.334-.766.978-.98 2.431-1.288 3.694-.739zm-.025 9.196v-2.627h-1.31c-.74 0-1.31.572-1.31 1.314 0 .74.57 1.313 1.31 1.313h1.31zm8.028-9.365a3.463 3.463 0 0 1 3.454 3.465v4.587a3.463 3.463 0 0 1-3.454 3.464H79.64a1.07 1.07 0 0 1-1.072-1.075V69.557a1.07 1.07 0 0 1 1.072-1.075 1.07 1.07 0 0 1 1.073 1.075v3.797h1.31zm1.31 8.052v-4.587c0-.742-.572-1.314-1.31-1.314h-1.31v7.213h1.31c.738 0 1.31-.571 1.31-1.312zm6.981 1.552c.5.31.691.932.38 1.481-.284.502-.951.67-1.453.382a3.01 3.01 0 0 1-1.5-2.58V69.556c0-.597.5-1.075 1.072-1.075.596 0 1.071.478 1.071 1.075v12.685c0 .311.143.55.43.717zm5.432-9.698a3.463 3.463 0 0 1 3.455 3.463v2.39a1.07 1.07 0 0 1-1.072 1.074h-3.693v1.314c0 .55.308 1.004.808 1.217.502.193 1.05.097 1.431-.285.215-.215.451-.335.739-.335.308 0 .57.12.786.335.213.215.308.478.308.764 0 .287-.095.55-.308.765-1.026.98-2.454 1.288-3.764.74-1.334-.55-2.146-1.767-2.146-3.2v-4.779a3.463 3.463 0 0 1 3.456-3.463zm1.309 4.777v-1.314c0-.74-.57-1.313-1.309-1.313-.74 0-1.31.573-1.31 1.313v1.314h2.619zm8.648.884a3.317 3.317 0 0 1 1.406 2.508 3.256 3.256 0 0 1-1.072 2.676c-.74.669-1.715.98-2.741.812-1.023-.167-1.859-.74-2.357-1.625-.288-.501-.12-1.17.38-1.457.549-.286 1.19-.12 1.478.382.165.335.453.526.832.574.36.071.667-.024.955-.287.286-.239.405-.55.38-.932-.023-.406-.19-.692-.477-.883l-2.24-1.553a3.31 3.31 0 0 1-1.356-2.437 3.187 3.187 0 0 1 1.048-2.602c.739-.647 1.69-.957 2.669-.789a3.265 3.265 0 0 1 2.287 1.576c.285.501.143 1.17-.407 1.457-.499.288-1.166.12-1.453-.38a.965.965 0 0 0-.761-.526c-.311-.072-.62.022-.881.262-.263.214-.382.5-.36.86.026.335.191.598.453.811l2.217 1.553z"/>
    </g>
</svg>
