<svg xmlns="http://www.w3.org/2000/svg" width="94" height="86" viewBox="0 0 94 86">
    <g fill="#FFF" fill-rule="evenodd">
        <path d="M11.55 11.284c-1.773 0-3.383-.337-4.783-1.002C2.37 8.195.593 3.111.52 2.894L0 1.37 1.525.814C1.615.779 3.78 0 6.458 0c1.774 0 3.384.339 4.784 1.002 3.141 1.492 4.94 4.507 5.738 6.189a10.7 10.7 0 0 1 3.833-.72c1.554 0 3.054.343 4.42.953a10.434 10.434 0 0 1 8.897-4.981c2.042 0 3.943.593 5.552 1.606a10.414 10.414 0 0 1 6.936-2.647c3.695 0 6.94 1.926 8.792 4.811a14.342 14.342 0 0 1 9.543-3.64c5 0 9.59 2.565 12.195 6.755 7.259.752 12.817 6.789 12.817 14.128 0 .702-.068 1.386-.168 2.06h3.795v1.653c0 18.972-18.78 34.405-41.864 34.405-23.085 0-41.865-15.433-41.865-34.405v-1.653h4.345l-.306-.257a10.59 10.59 0 0 1-3.807-8.231c.018-2.079.65-4.063 1.773-5.755-.106.003-.21.011-.318.011zm15.777 2.325a7.418 7.418 0 0 0-6.514-3.83c-1.713 0-3.325.57-4.663 1.654a7.302 7.302 0 0 0-2.723 5.625c-.015 1.8.656 3.494 1.821 4.834l5.017-4.82 2.317 2.377-4.867 4.677 1.66 1.39h14.49l-1.252-2.278-2.336 2.195-2.292-2.403 2.978-2.799-3.636-6.622zm13.891-.823c0-3.88-3.18-7.036-7.088-7.036-2.608 0-4.867 1.421-6.098 3.508a10.655 10.655 0 0 1 2.221 2.769l1.544 2.81a10.414 10.414 0 0 1 6.066-1.95c1.15 0 2.255.193 3.29.537.02-.213.065-.42.065-.638zM52.76 9.328c.097-.157.217-.296.32-.448a7.094 7.094 0 0 0-6.462-4.17c-1.67 0-3.188.6-4.4 1.565a10.247 10.247 0 0 1 2.334 6.51c0 .075-.01.148-.012.223a14.336 14.336 0 0 1 8.22-3.68zm-19.34 8.466l4.24 7.722h2.448c-.1-.674-.168-1.358-.168-2.06 0-2.255.53-4.387 1.468-6.282-1.046-.606-2.248-.98-3.545-.98-1.69 0-3.223.616-4.443 1.6zm18.308 40.473c20.559 0 37.407-13.062 38.477-29.444H13.252C14.32 45.205 31.17 58.267 51.728 58.267zm22.944-46.578a10.999 10.999 0 0 0-9.719-5.808 10.992 10.992 0 0 0-9.716 5.808l-.449.84-.958.037c-5.918.236-10.557 5.018-10.557 10.89 0 .705.075 1.393.204 2.06h12.875l-6.404-3.51 1.612-2.894 11.682 6.404h.045v-11.57h3.333v11.57h.365l12.282-6.834 1.631 2.886-7.098 3.948h12.628c.13-.667.204-1.355.204-2.06 0-5.872-4.637-10.654-10.555-10.89l-.957-.036-.448-.84zM9.802 3.987c-.947-.451-2.072-.68-3.344-.68-.733 0-1.42.077-2.003.176.718 1.273 1.947 2.959 3.75 3.815.948.45 2.073.678 3.345.678.732 0 1.418-.076 2-.175-.715-1.273-1.945-2.959-3.748-3.814zm12.888 30.2c1.88 5.07 5.858 9.594 11.2 12.735l-1.7 2.846c-5.999-3.53-10.485-8.656-12.629-14.438l3.129-1.143zM5.388 71.115c2.132 0 3.52 1.357 3.52 3.293v.5c0 .48-.121.598-.603.598H7.097c-.482 0-.604-.119-.604-.598v-.599a.779.779 0 0 0-.803-.799.78.78 0 0 0-.805.799c0 2.993 4.023 3.612 4.023 7.785 0 2.057-1.348 3.393-3.621 3.393-2.274 0-3.62-1.336-3.62-3.393v-.6c0-.479.12-.598.603-.598h1.208c.482 0 .602.12.602.599v.698c0 .539.363.898.905.898.543 0 .907-.359.907-.898 0-2.974-4.024-3.592-4.024-7.785 0-1.936 1.367-3.293 3.52-3.293zm8.248 0c2.154 0 3.522 1.357 3.522 3.294v10.28c0 .48-.122.599-.605.599h-1.81c-.483 0-.603-.12-.603-.599v-3.992c0-.32-.08-.4-.402-.4h-.805c-.322 0-.402.08-.402.4v3.992c0 .48-.121.599-.603.599H10.72c-.482 0-.604-.12-.604-.599v-10.28c0-1.937 1.369-3.293 3.52-3.293zm.504 6.388v-3.195a.778.778 0 0 0-.804-.797.779.779 0 0 0-.805.797v3.195c0 .32.08.399.402.399h.805c.322 0 .402-.08.402-.399zm10.06 5.39c.483 0 .604.119.604.598v1.198c0 .48-.12.598-.604.598h-4.826c-.484 0-.605-.119-.605-.598V71.913c0-.478.121-.599.605-.599h1.81c.481 0 .603.12.603.599v10.581c0 .318.082.399.402.399H24.2zm5.131-11.777c2.154 0 3.522 1.356 3.522 3.293v10.28c0 .48-.122.599-.605.599h-1.81c-.483 0-.603-.12-.603-.599v-3.992c0-.32-.08-.4-.402-.4h-.805c-.322 0-.403.08-.403.4v3.992c0 .48-.12.599-.602.599h-1.208c-.482 0-.604-.12-.604-.599v-10.28c0-1.937 1.369-3.293 3.52-3.293zm.504 6.387v-3.195a.778.778 0 0 0-.803-.797c-.464 0-.807.339-.807.797v3.195c0 .32.081.399.403.399h.805c.322 0 .402-.08.402-.399zm8.351-6.189c2.335 0 3.722 1.4 3.722 3.493v6.988c0 2.095-1.387 3.493-3.722 3.493h-3.118c-.482 0-.604-.12-.604-.6V71.914c0-.478.122-.599.604-.599h3.118zm.703 10.88v-7.785a.684.684 0 0 0-.703-.698h-.402c-.243 0-.303.06-.303.299v8.582c0 .241.06.3.303.3h.402a.686.686 0 0 0 .703-.699zM57.4 71.313c.482 0 .602.12.602.599v1.199c0 .478-.12.598-.602.598h-2.413c-.324 0-.404.08-.404.399v2.396c0 .32.08.399.404.399h1.406c.484 0 .604.12.604.599V78.7c0 .48-.12.599-.604.599h-1.406c-.324 0-.404.08-.404.398v2.797c0 .318.08.399.404.399H57.4c.482 0 .602.119.602.598v1.198c0 .48-.12.598-.602.598h-5.232c-.481 0-.603-.119-.603-.598v-4.992c0-.317-.08-.398-.402-.398h-.603c-.322 0-.403.08-.403.398v4.992c0 .48-.12.598-.604.598h-1.81c-.481 0-.603-.119-.603-.598V71.913c0-.478.122-.599.603-.599h1.81c.484 0 .604.12.604.599v4.592c0 .32.081.399.403.399h.603c.322 0 .402-.08.402-.399v-4.592c0-.478.122-.599.603-.599H57.4zm5.333-.198c2.154 0 3.522 1.356 3.522 3.293v10.28c0 .48-.122.599-.605.599h-1.81c-.483 0-.603-.12-.603-.599v-3.992c0-.32-.08-.4-.402-.4h-.805c-.322 0-.403.08-.403.4v3.992c0 .48-.12.599-.602.599h-1.208c-.482 0-.604-.12-.604-.599v-10.28c0-1.937 1.369-3.293 3.52-3.293zm.504 6.387v-3.195a.778.778 0 0 0-.804-.797c-.463 0-.806.339-.806.797v3.195c0 .32.081.399.403.399h.805c.322 0 .402-.08.402-.399zm11.306-6.189c.484 0 .585.12.504.599l-2.012 12.776c-.08.48-.221.598-.703.598h-2.413c-.484 0-.626-.119-.706-.598l-2.011-12.776c-.08-.478.018-.599.502-.599h2.113c.482 0 .603.12.663.599l.845 6.987h.2l.845-6.987c.062-.478.183-.599.665-.599h1.508zm7.487 0c.482 0 .602.12.602.599v1.199c0 .478-.12.598-.602.598h-2.415c-.321 0-.401.08-.401.399v2.396c0 .32.08.399.401.399h1.409c.483 0 .603.12.603.599V78.7c0 .48-.12.599-.603.599h-1.409c-.321 0-.401.08-.401.398v2.797c0 .318.08.399.401.399h2.416c.481 0 .601.119.601.598v1.198c0 .48-.12.598-.602.598H76.8c-.482 0-.604-.119-.604-.598V71.913c0-.478.122-.599.604-.599h5.231zm8.25 0c.483 0 .602.12.602.599v12.776c0 .48-.12.598-.603.598h-1.408c-.482 0-.642-.119-.783-.577l-1.63-5.211h-.202v5.19c0 .48-.12.598-.602.598h-1.208c-.482 0-.603-.119-.603-.598V71.913c0-.478.121-.599.603-.599h1.408c.484 0 .644.12.784.58l1.63 5.21h.201v-5.191c0-.478.12-.599.604-.599h1.206z"/>
    </g>
</svg>
